<?xml version="1.0" standalone="no"?>
<!DOCTYPE svg PUBLIC "-//W3C//DTD SVG 20010904//EN"
 "http://www.w3.org/TR/2001/REC-SVG-20010904/DTD/svg10.dtd">
<svg version="1.0" xmlns="http://www.w3.org/2000/svg"
 width="299.000000pt" height="85.000000pt" viewBox="0 0 299.000000 85.000000"
 preserveAspectRatio="xMidYMid meet">

<g transform="translate(0.000000,85.000000) scale(0.100000,-0.100000)"
fill="#000000" stroke="none">
<path d="M171 553 c-53 -339 -64 -414 -60 -418 3 -2 23 -1 46 2 l42 5 7 55 c7
59 7 59 75 68 l47 6 7 -57 7 -56 46 7 c26 4 49 8 50 10 2 2 -18 132 -44 289
l-47 286 -72 0 -72 0 -32 -197z m139 -185 c0 -14 -8 -18 -40 -18 -22 0 -40 4
-40 10 0 21 31 226 37 240 5 13 42 -186 43 -232z"/>
<path d="M480 464 l0 -286 98 6 c162 12 162 12 162 58 l0 41 -80 -5 -80 -5 0
239 0 238 -50 0 -50 0 0 -286z"/>
<path d="M770 525 c0 -251 6 -282 59 -309 42 -22 119 -20 158 4 65 39 68 50
71 302 l4 228 -51 0 -51 0 -2 -222 -3 -222 -24 -13 c-17 -8 -31 -9 -43 -2 -17
9 -18 28 -18 234 l0 225 -50 0 -50 0 0 -225z"/>
<path d="M1120 484 l0 -265 48 3 47 3 3 108 3 107 28 0 c43 0 53 -21 59 -120
l5 -90 48 0 47 0 -5 98 c-6 94 -22 152 -44 152 -6 0 1 14 15 31 22 26 26 40
26 94 0 120 -31 145 -184 145 l-96 0 0 -266z m178 123 c4 -68 -8 -87 -52 -87
l-31 0 0 75 0 76 40 -3 40 -3 3 -58z"/>
<path d="M1530 741 c0 -4 -18 -102 -39 -217 -21 -115 -42 -228 -46 -251 l-7
-43 46 0 45 0 7 45 6 45 57 0 58 0 9 -47 9 -48 48 -3 c32 -2 47 1 47 9 0 7
-20 122 -45 256 -25 134 -45 248 -45 253 0 6 -32 10 -75 10 -41 0 -75 -4 -75
-9z m88 -193 c6 -40 15 -90 18 -110 l7 -38 -42 0 c-22 0 -41 3 -41 8 -1 23 35
212 40 212 4 0 12 -33 18 -72z"/>
<path d="M1810 485 l0 -265 50 0 50 0 0 110 0 110 60 0 60 0 0 40 0 40 -60 0
-60 0 0 75 0 74 78 3 77 3 3 38 3 37 -130 0 -131 0 0 -265z"/>
<path d="M2110 481 l0 -270 43 -5 c23 -3 79 -8 125 -11 l82 -6 0 45 0 46 -52
0 c-29 0 -63 3 -75 6 l-23 6 0 229 0 229 -50 0 -50 0 0 -269z"/>
<path d="M2402 468 l3 -283 48 -3 47 -3 0 285 0 286 -50 0 -50 0 2 -282z"/>
<path d="M2553 737 c3 -8 25 -72 49 -141 l43 -126 -52 -149 -51 -149 45 -6
c26 -3 47 -5 48 -4 0 2 16 51 35 111 19 59 36 107 39 107 4 0 22 -53 41 -117
l36 -118 48 -8 c27 -4 50 -6 52 -5 2 2 -20 77 -49 166 l-51 163 43 132 c24 73
46 138 48 145 4 8 -8 12 -40 12 l-46 0 -32 -100 c-19 -55 -36 -100 -39 -100
-3 0 -19 44 -35 98 l-30 97 -54 3 c-44 3 -53 0 -48 -11z"/>
</g>
</svg>
